# xmcd CD database file
#
# Track frame offsets:
#	150
#	46682
#	81168
#	115865
#	148913
#
# Disc length: 2454 seconds
#
# Revision: 0
# Processed by: cddbd v1.5.2PL0 Copyright (c) Steve Scherf et al.
# Submitted via: CDex 1.75
#
DISCID=3c099405
DTITLE=The Jazz at Lincoln Center Orchestra w/Wynton Marsalis feat. Wayne Shorter - The Music of Wayne Shorter-CD1
DYEAR=2020
DGENRE=Jazz
TTITLE0=Yes or Nofeat. Wayne Shorter 
TTITLE1=Diana
TTITLE2=Hammer Head
TTITLE3=Contemplation
TTITLE4=Endangered Species
EXTD=YEAR: 2020
EXTT0=
EXTT1=
EXTT2=
EXTT3=
EXTT4=
PLAYORDER=
